# xmcd
#
# Track frame offsets:
#	150
#	18016
#	41976
#	58777
#	80386
#	97934
#	115302
#	131673
#	160861
#	174002
#	188801
#	208896
#	223121
#	241399
#
# Disc length: 3443 seconds
#
# Revision: 0
# Processed by: cddbd v1.5.2PL0 Copyright (c) Steve Scherf et al.
# Submitted via: dBpowerAMP V4.0
#
DISCID=bc0d710e
DTITLE=ADRIANA ANTONI - CA ROMANII NU SUNT ALTII
DYEAR=2008
DGENRE=Country
TTITLE0=soarta e din cer lasata
TTITLE1=drumul catre satul meu
TTITLE2=dragoste cu nabadai
TTITLE3=tata azi e ziua ta ( Ghe. Zamfir )
TTITLE4=inima mea bate
TTITLE5=nu mai pot trai ( Tinu )
TTITLE6=am o viata nu am zece
TTITLE7=ca romanii nu sunt altii ( Ghe. Zamfir )
TTITLE8=banateanu si ardeleanu ( Dinu Iancu Salajanu )
TTITLE9=toti barbatii cand se-nsoara
TTITLE10=ma gandesc la mama mea
TTITLE11=hai la joc la joc
TTITLE12=ma lupt cu gandurile
TTITLE13=de ce
EXTD=
EXTT0=
EXTT1=
EXTT2=
EXTT3=
EXTT4=
EXTT5=
EXTT6=
EXTT7=
EXTT8=
EXTT9=
EXTT10=
EXTT11=
EXTT12=
EXTT13=
PLAYORDER=
